
<svg  xmlns="http://www.w3.org/2000/svg" xmlns:xlink="http://www.w3.org/1999/xlink" x="0px" y="0px"
	 viewBox="0 0 311.8 311.8" xml:space="preserve">

	<style>

	</style>

<g style="fill: #ce753f;">
	<path d="M43.4,0h225c11.9,0,22.8,4.9,30.7,12.7c7.9,7.9,12.7,18.7,12.7,30.7v225c0,11.9-4.9,22.8-12.7,30.7
		c-7.9,7.9-18.7,12.7-30.7,12.7h-225c-11.9,0-22.8-4.9-30.7-12.7C4.9,291.2,0,280.3,0,268.4v-225c0-11.9,4.9-22.8,12.7-30.7
		C20.6,4.9,31.5,0,43.4,0L43.4,0z M268.4,6.4h-225c-10.2,0-19.4,4.2-26.2,10.9C10.5,24,6.4,33.2,6.4,43.4v225
		c0,10.2,4.2,19.4,10.9,26.2c6.7,6.7,16,10.9,26.2,10.9h225c10.2,0,19.4-4.2,26.2-10.9c6.7-6.7,10.9-16,10.9-26.2v-225
		c0-10.2-4.2-19.4-10.9-26.2C287.9,10.5,278.6,6.4,268.4,6.4L268.4,6.4z"/>
	<path class="st0" d="M164.3,207.4c0,0,9.3,20,11.9,22c7.9,6.2,28.4,35.6,22.6,38.7c-4.6,2.5-36.2-34.9-37.1-36.9
		c-0.9-2-11.3-19.6-11.3-19.6l-21.8-1.9c0,0-15.2,14.2-14.2,17.2c3,4.4-7,46.9-13.3,49.1c-6.3,2.2,0.4-48,0-51.5
		c-0.4-3.5,10.5-19.4,10.5-19.4c-10.5-4.4-17.9-12.3-9.3-18.6l17.9-10.5l-0.7-32.6c0,0-28.6,2.9-34.7-1.6
		c-6.1-4.4-16.4-32.6-16.4-32.6c-6.9-1.8-10.8-13.7-1.7-15.4c5.7-1.1,11.4,6.5,8.8,11.3c0.9,3.2,9.3,25.4,14.8,28.4
		c5.5,3,29.1-5.2,33.6-5c3.6,0.2,10.5,2.6,16.6,4.3c6.5,1.8,12.5,1.4,16.1,3.2c8.8,4.3,15.2,22.5,22.4,26c7.2,3.5,27.2,5.1,26.9,5.2
		c-0.2,0,1.6-1.7,4-1.6c2.4,0.1,7.2,1.7,7,6.2c-0.4,6.6-11.2,6.2-11.7,1.9c0,0-18.4,0-29.6-2.9c-8.9-2.3-22.2-20.1-22.2-20.1
		l-2.5,24.8C164.9,191,192.4,188.9,164.3,207.4L164.3,207.4z"/>
	<path class="st0" d="M55.2,56.5c-0.2,0.1-2,0.5-2.3,2.3c-0.3,1.8,0.9,3.3,2.1,4.3c1.1,1,4.5,2.1,5.2,4.2c0.6,2,0.2,3.8-0.8,4.8
		c-1,1-2.6,2.5-5.7,1.8c-3-0.6-5.2-3.1-6.1-6s-0.2-5.3,0.7-7C49.2,59.3,51.4,56.9,55.2,56.5L55.2,56.5z"/>
	<path class="st0" d="M57.6,74.1c0,0,2.3-0.6,3.4-2.4c1.2-1.7,1.1-3.4,0.6-4.7c-0.5-1.3-1.8-2.7-3.3-3.5c-1.5-0.8-2.2-1.2-3.3-2.6
		c-1.1-1.4-1-2.8-0.5-3.3c0.4-0.6,2-1.5,2-1.5s6.7-0.2,8.9,6.5c1,3.2,0.1,6.6-2,8.6C61.1,73.5,57.6,74.1,57.6,74.1L57.6,74.1z"/>
	<path class="st0" d="M142.5,91.4c10.3,0,18.6,8.1,18.6,18c0,9.9-8.3,18-18.6,18c-10.3,0-18.6-8.1-18.6-18
		C123.9,99.4,132.2,91.4,142.5,91.4L142.5,91.4z"/>
	<path class="st0" d="M161.7,109.9c1.1,0.2,1.7,1.8,1.4,3.6c-0.4,1.7-1.6,3-2.7,2.7c-1.1-0.2-1.7-1.8-1.4-3.6
		C159.4,110.8,160.6,109.6,161.7,109.9L161.7,109.9z"/>
	<path class="st0" d="M163,111.3c0,0,8.8-5.3,12.8,1.3c4,6.6-4.5,10.6-0.8,17.9c1.7,3.3,13.4,2.5,3.4,5.2
		c-3.1,0.8-13.3-1.5-15.5-8.4c-2.2-7,0.4-10,0.3-11.6s-1.4-1.1-1.4-1.1L163,111.3L163,111.3z"/>
	<path class="st0" d="M252.9,94.3c0,0-2.3-2.9-4.7-4.1c-2.4-1.2-6.8-1.3-6.8-1.3s-2.1-2.3-3.4-4.9c-1.3-2.6-5.3-1.4-7.2,0
		c-2,1.4-5.3,2.3-5.3,2.3s1.4-5.8,4.6-7.7c3.2-1.9,9.8-2.3,13.2,1.5c3.4,3.8,3.4,3.8,3.4,3.8s-6.4-8.2-5.2-12.8
		c1.2-4.6,3.2-6.5,2.3-10.6c-0.9-4.2-0.9-4.8-0.9-4.8s4.1,5.6,5.9,11.5c1.9,5.9,2.2,10.4,2,12.1c-0.1,1.7-0.4,3.5-0.4,3.5
		s2.5-9.2,5.7-11c3.2-1.8,16.1-3.3,16.1-3.3s-2.4,5.4-5.7,6.9c-3.3,1.4-6.1,2.2-7.2,4c-1.1,1.8-4.4,4.1-4.4,4.1s4.4-3.6,9-2.5
		c4.6,1.1,5,4.1,6.4,7c1.3,3,5.8,3.7,5.8,3.7s-6.8,1-9.3-0.1s-1.9-4.1-6.3-5.2c-4.4-1.1-6.3,1.9-6.3,1.9s6.3-2.6,9.8,2.6
		s2.4,7,1.2,10.6c-1.2,3.6-1.1,4.6-1.1,4.6s-4.4-8.6-4.3-10.9c0.1-2.2-0.4-2.2-2.1-2.1C256.1,93.3,252.9,94.3,252.9,94.3L252.9,94.3
		z"/>
	<path d="M245.4,93.1c5.2,2.4,8.7,7.2,10.1,13c1.4,5.8,0.8,12.5-2.1,19c-5.9,13-19,19.7-29.3,15c-5.2-2.4-8.7-7.2-10.1-13
		c-1.4-5.8-0.8-12.5,2.1-19C221.9,95.1,235,88.4,245.4,93.1L245.4,93.1z M217.2,129l1.7,0.8l0.9-2.1l-1.7-0.8L217.2,129L217.2,129z
		 M219.4,130l1.8,0.8l0.9-2.1l-1.8-0.8L219.4,130L219.4,130z M221.7,131.1l1.7,0.8l0.9-2.1l-1.7-0.8L221.7,131.1L221.7,131.1z
		 M223.9,132.1l1.7,0.8l0.9-2.1l-1.7-0.8L223.9,132.1L223.9,132.1z M226.1,133.1l1.7,0.8l0.9-2.1l-1.7-0.8L226.1,133.1L226.1,133.1z
		 M228.4,134.1l1.8,0.8l0.9-2.1l-1.8-0.8L228.4,134.1L228.4,134.1z M230.7,135.1l1.7,0.8l0.9-2.1l-1.7-0.8L230.7,135.1L230.7,135.1z
		 M232.9,136.1l1.7,0.8l0.9-2.1l-1.7-0.8L232.9,136.1L232.9,136.1z M235.1,137.1l1.7,0.8l0.9-2.1L236,135L235.1,137.1L235.1,137.1z
		 M237.3,138.1l0.1,0c0.9-0.4,1.8-0.8,2.7-1.3l0,0l-1.9-0.8L237.3,138.1L237.3,138.1z M236.6,138.4l-1.7-0.8l-0.7,1.5
		C235,139,235.8,138.7,236.6,138.4L236.6,138.4L236.6,138.4z M234.4,137.4l-1.7-0.8l-1.3,2.8c0.7,0,1.4-0.1,2.1-0.2L234.4,137.4
		L234.4,137.4z M232.2,136.4l-1.7-0.8l-1.6,3.6c0.7,0.1,1.3,0.2,2,0.2L232.2,136.4L232.2,136.4z M229.9,135.4l-1.8-0.8l-1.8,4.1
		c0.6,0.2,1.3,0.4,1.9,0.5L229.9,135.4L229.9,135.4z M227.6,134.3l-1.7-0.8l-1.9,4.1c0.3,0.2,0.6,0.3,0.9,0.5
		c0.3,0.1,0.5,0.2,0.8,0.3L227.6,134.3L227.6,134.3z M225.4,133.3l-1.7-0.8l-1.7,3.7c0.5,0.4,1,0.8,1.6,1.1L225.4,133.3L225.4,133.3
		z M223.2,132.3l-1.7-0.8l-1.4,3c0.5,0.5,0.9,1,1.5,1.4L223.2,132.3L223.2,132.3z M221,131.3l-1.8-0.8l-0.8,1.7
		c0.4,0.7,0.9,1.3,1.3,1.8L221,131.3L221,131.3z M218.7,130.3l-1.7-0.8c0.3,0.8,0.7,1.5,1.1,2.2L218.7,130.3L218.7,130.3z M232.6,95
		l1.7,0.8l0.8-1.7c-0.8,0.2-1.6,0.4-2.4,0.7L232.6,95L232.6,95z M234.8,96l1.8,0.8l1.4-3.1c-0.8,0-1.5,0.1-2.3,0.2L234.8,96
		L234.8,96z M237.1,97.1l1.7,0.8l1.8-4c-0.7-0.1-1.3-0.2-2-0.2L237.1,97.1L237.1,97.1z M239.3,98.1l1.7,0.8l2-4.4
		c-0.6-0.2-1.2-0.4-1.8-0.5L239.3,98.1L239.3,98.1z M241.5,99.1l1.7,0.8l2-4.4c-0.3-0.1-0.5-0.3-0.8-0.4c-0.3-0.1-0.6-0.3-1-0.4
		L241.5,99.1L241.5,99.1z M243.8,100.1l1.8,0.8l1.9-4.1c-0.5-0.4-1.1-0.8-1.7-1.1L243.8,100.1L243.8,100.1z M246.1,101.1l1.7,0.8
		l1.5-3.3c-0.5-0.5-0.9-1-1.5-1.4L246.1,101.1L246.1,101.1z M248.3,102.2l1.7,0.8l1-2.2c-0.4-0.6-0.8-1.2-1.3-1.7L248.3,102.2
		L248.3,102.2z M250.5,103.1l1.7,0.8l0.2-0.4c-0.3-0.8-0.7-1.5-1.1-2.2L250.5,103.1L250.5,103.1z M252.9,104.8l-0.4-0.2l-0.8,1.7
		l1.9,0.8c0-0.2-0.1-0.4-0.1-0.6C253.3,106,253.1,105.4,252.9,104.8L252.9,104.8z M252,104.4l-1.7-0.8l-0.8,1.7l1.7,0.8L252,104.4
		L252,104.4z M249.8,103.4l-1.7-0.8l-0.8,1.7l1.7,0.8L249.8,103.4L249.8,103.4z M247.6,102.4l-1.7-0.8l-0.8,1.7l1.7,0.8L247.6,102.4
		L247.6,102.4z M245.3,101.4l-1.8-0.8l-0.8,1.7l1.8,0.8L245.3,101.4L245.3,101.4z M243,100.4l-1.7-0.8l-0.8,1.7l1.7,0.8L243,100.4
		L243,100.4z M240.8,99.4l-1.7-0.8l-0.8,1.7l1.7,0.8L240.8,99.4L240.8,99.4z M238.6,98.4l-1.7-0.8l-0.8,1.7l1.7,0.8L238.6,98.4
		L238.6,98.4z M236.4,97.3l-1.8-0.8l-0.8,1.7l1.8,0.8L236.4,97.3L236.4,97.3z M234.1,96.3l-1.7-0.8l-0.8,1.7l1.7,0.8L234.1,96.3
		L234.1,96.3z M231.8,95.3l-0.3-0.1c-0.7,0.3-1.5,0.7-2.2,1.1l0,0l1.7,0.8L231.8,95.3L231.8,95.3z M253.3,107.7l-1.9-0.8l-0.8,1.7
		l1.9,0.8L253.3,107.7L253.3,107.7z M251,106.7l-1.7-0.8l-0.8,1.7l1.7,0.8L251,106.7L251,106.7z M248.8,105.7l-1.7-0.8l-0.8,1.7
		l1.7,0.8L248.8,105.7L248.8,105.7z M246.6,104.7l-1.7-0.8l-0.8,1.7l1.7,0.8L246.6,104.7L246.6,104.7z M244.3,103.6l-1.8-0.8
		l-0.8,1.7l1.8,0.8L244.3,103.6L244.3,103.6z M242,102.6l-1.7-0.8l-0.8,1.7l1.7,0.8L242,102.6L242,102.6z M239.8,101.6l-1.7-0.8
		l-0.8,1.7l1.7,0.8L239.8,101.6L239.8,101.6z M237.6,100.6l-1.7-0.8l-0.8,1.7l1.7,0.8L237.6,100.6L237.6,100.6z M235.4,99.6
		l-1.8-0.8l-0.8,1.7l1.8,0.8L235.4,99.6L235.4,99.6z M233.1,98.5l-1.7-0.8l-0.8,1.7l1.7,0.8L233.1,98.5L233.1,98.5z M230.8,97.5
		l-1.7-0.8l-0.8,1.7l1.7,0.8L230.8,97.5L230.8,97.5z M226.9,97.8l1,0.4l0.7-1.6C228,97,227.4,97.4,226.9,97.8L226.9,97.8z
		 M253.1,109.7l0.9,0.4c-0.1-0.7-0.1-1.3-0.3-2L253.1,109.7L253.1,109.7z M254,110.7l-1.2-0.6L252,112l1.7,0.8l0.4-0.8
		C254.1,111.6,254.1,111.2,254,110.7L254,110.7z M252.3,110l-1.9-0.8l-0.8,1.9l1.9,0.8L252.3,110L252.3,110z M250,108.9l-1.7-0.8
		l-0.8,1.9l1.7,0.8L250,108.9L250,108.9z M247.7,107.9l-1.7-0.8l-0.8,1.9l1.7,0.8L247.7,107.9L247.7,107.9z M245.5,106.9l-1.7-0.8
		L243,108l1.7,0.8L245.5,106.9L245.5,106.9z M243.3,105.9l-1.8-0.8l-0.8,1.9l1.8,0.8L243.3,105.9L243.3,105.9z M241,104.8l-1.7-0.8
		l-0.8,1.9l1.7,0.8L241,104.8L241,104.8z M238.8,103.8l-1.7-0.8l-0.8,1.9l1.7,0.8L238.8,103.8L238.8,103.8z M236.6,102.8l-1.7-0.8
		l-0.8,1.9l1.7,0.8L236.6,102.8L236.6,102.8z M234.4,101.8l-1.8-0.8l-0.8,1.9l1.8,0.8L234.4,101.8L234.4,101.8z M232.1,100.8
		l-1.7-0.8l-0.8,1.9l1.7,0.8L232.1,100.8L232.1,100.8z M229.8,99.8l-1.7-0.8l-0.8,1.9l1.7,0.8L229.8,99.8L229.8,99.8z M227.6,98.8
		l-1.2-0.6c-0.3,0.2-0.6,0.5-0.9,0.8l-0.4,0.9l1.7,0.8L227.6,98.8L227.6,98.8z M221.2,103.5l1.3,0.6l0.8-1.7l-0.9-0.4
		C222,102.4,221.6,102.9,221.2,103.5L221.2,103.5z M223,104.3l1.7,0.8l0.8-1.7l-1.7-0.8L223,104.3L223,104.3z M225.3,105.3l1.7,0.8
		l0.8-1.7l-1.7-0.8L225.3,105.3L225.3,105.3z M227.5,106.3l1.7,0.8l0.8-1.7l-1.7-0.8L227.5,106.3L227.5,106.3z M229.7,107.3l1.8,0.8
		l0.8-1.7l-1.8-0.8L229.7,107.3L229.7,107.3z M232,108.3l1.7,0.8l0.8-1.7l-1.7-0.8L232,108.3L232,108.3z M234.2,109.3l1.7,0.8
		l0.8-1.7l-1.7-0.8L234.2,109.3L234.2,109.3z M236.4,110.3l1.7,0.8l0.8-1.7l-1.7-0.8L236.4,110.3L236.4,110.3z M238.7,111.4l1.8,0.8
		l0.8-1.7l-1.8-0.8L238.7,111.4L238.7,111.4z M241,112.4l1.7,0.8l0.8-1.7l-1.7-0.8L241,112.4L241,112.4z M243.2,113.4l1.7,0.8
		l0.8-1.7l-1.7-0.8L243.2,113.4L243.2,113.4z M245.4,114.4l1.7,0.8l0.8-1.7l-1.7-0.8L245.4,114.4L245.4,114.4z M247.6,115.4l1.9,0.8
		l0.8-1.7l-1.9-0.8L247.6,115.4L247.6,115.4z M250,116.5l1.7,0.8l0.8-1.7l-1.7-0.8L250,116.5L250,116.5z M252.2,117.5l1.3,0.6
		c0.1-0.6,0.2-1.3,0.3-1.9l-0.8-0.4L252.2,117.5L252.2,117.5z M253.4,118.6L252,118l-0.8,1.7l1.7,0.8
		C253,119.8,253.2,119.2,253.4,118.6L253.4,118.6z M251.5,117.8l-1.7-0.8l-0.8,1.7l1.7,0.8L251.5,117.8L251.5,117.8z M249.3,116.7
		l-1.9-0.8l-0.8,1.7l1.9,0.8L249.3,116.7L249.3,116.7z M246.9,115.7l-1.7-0.8l-0.8,1.7l1.7,0.8L246.9,115.7L246.9,115.7z
		 M244.7,114.7l-1.7-0.8l-0.8,1.7l1.7,0.8L244.7,114.7L244.7,114.7z M242.5,113.7l-1.7-0.8l-0.8,1.7l1.7,0.8L242.5,113.7
		L242.5,113.7z M240.2,112.7l-1.8-0.8l-0.8,1.7l1.8,0.8L240.2,112.7L240.2,112.7z M237.9,111.6l-1.7-0.8l-0.8,1.7l1.7,0.8
		L237.9,111.6L237.9,111.6z M235.7,110.6l-1.7-0.8l-0.8,1.7l1.7,0.8L235.7,110.6L235.7,110.6z M233.5,109.6l-1.7-0.8l-0.8,1.7
		l1.7,0.8L233.5,109.6L233.5,109.6z M231.3,108.6l-1.8-0.8l-0.8,1.7l1.8,0.8L231.3,108.6L231.3,108.6z M229,107.6l-1.7-0.8l-0.8,1.7
		l1.7,0.8L229,107.6L229,107.6z M226.7,106.6l-1.7-0.8l-0.8,1.7l1.7,0.8L226.7,106.6L226.7,106.6z M224.5,105.6l-1.7-0.8l-0.8,1.7
		l1.7,0.8L224.5,105.6L224.5,105.6z M222.3,104.5l-1.4-0.6c-0.4,0.5-0.7,1.1-1.1,1.6l1.7,0.8L222.3,104.5L222.3,104.5z M252.7,121
		l-1.7-0.8l-0.8,1.8l1.9,0.8C252.3,122.2,252.5,121.6,252.7,121L252.7,121z M250.5,120l-1.7-0.8l-0.8,1.8l1.7,0.8L250.5,120
		L250.5,120z M248.2,119l-1.9-0.8l-0.8,1.8l1.9,0.8L248.2,119L248.2,119z M245.9,117.9l-1.7-0.8l-0.8,1.8l1.7,0.8L245.9,117.9
		L245.9,117.9z M243.7,116.9l-1.7-0.8l-0.8,1.8l1.7,0.8L243.7,116.9L243.7,116.9z M241.5,115.9l-1.7-0.8l-0.8,1.8l1.7,0.8
		L241.5,115.9L241.5,115.9z M239.2,114.9l-1.8-0.8l-0.8,1.8l1.8,0.8L239.2,114.9L239.2,114.9z M236.9,113.9l-1.7-0.8l-0.8,1.8
		l1.7,0.8L236.9,113.9L236.9,113.9z M234.7,112.8l-1.7-0.8l-0.8,1.8l1.7,0.8L234.7,112.8L234.7,112.8z M232.5,111.8l-1.7-0.8
		l-0.8,1.8l1.7,0.8L232.5,111.8L232.5,111.8z M230.3,110.8l-1.8-0.8l-0.8,1.8l1.8,0.8L230.3,110.8L230.3,110.8z M228,109.8l-1.7-0.8
		l-0.8,1.8l1.7,0.8L228,109.8L228,109.8z M225.7,108.8L224,108l-0.8,1.8l1.7,0.8L225.7,108.8L225.7,108.8z M223.5,107.8l-1.7-0.8
		l-0.8,1.8l1.7,0.8L223.5,107.8L223.5,107.8z M221.3,106.8l-1.7-0.8c-0.3,0.6-0.7,1.1-1,1.7l1.9,0.9L221.3,106.8L221.3,106.8z
		 M254.1,113.6L254.1,113.6l-0.9,1.7l0.7,0.3C254,114.9,254,114.3,254.1,113.6L254.1,113.6z M253.5,113.3l-1.7-0.8l-0.8,1.7l1.7,0.8
		L253.5,113.3L253.5,113.3z M251.3,112.3l-1.9-0.8l-0.8,1.7l1.9,0.8L251.3,112.3L251.3,112.3z M248.9,111.2l-1.7-0.8l-0.8,1.7
		l1.7,0.8L248.9,111.2L248.9,111.2z M246.7,110.2l-1.7-0.8l-0.8,1.7l1.7,0.8L246.7,110.2L246.7,110.2z M244.5,109.2l-1.7-0.8
		l-0.8,1.7l1.7,0.8L244.5,109.2L244.5,109.2z M242.2,108.2l-1.8-0.8l-0.8,1.7l1.8,0.8L242.2,108.2L242.2,108.2z M240,107.2l-1.7-0.8
		l-0.8,1.7l1.7,0.8L240,107.2L240,107.2z M237.7,106.2l-1.7-0.8l-0.8,1.7l1.7,0.8L237.7,106.2L237.7,106.2z M235.5,105.2l-1.7-0.8
		l-0.8,1.7l1.7,0.8L235.5,105.2L235.5,105.2z M233.3,104.2l-1.8-0.8l-0.8,1.7l1.8,0.8L233.3,104.2L233.3,104.2z M231,103.1l-1.7-0.8
		l-0.8,1.7l1.7,0.8L231,103.1L231,103.1z M228.8,102.1l-1.7-0.8l-0.8,1.7l1.7,0.8L228.8,102.1L228.8,102.1z M226.6,101.1l-1.7-0.8
		l-0.8,1.7l1.7,0.8L226.6,101.1L226.6,101.1z M224.3,100.1L224.3,100.1c-0.6,0.4-1,0.9-1.5,1.4l0.7,0.3L224.3,100.1L224.3,100.1z
		 M215.4,122.4l1.2,0.6l0.8-1.7l-1.7-0.8l-0.3,0.7C215.4,121.6,215.4,122,215.4,122.4L215.4,122.4z M217.1,123.2l1.7,0.8l0.8-1.7
		l-1.7-0.8L217.1,123.2L217.1,123.2z M219.3,124.2l1.7,0.8l0.8-1.7l-1.7-0.8L219.3,124.2L219.3,124.2z M221.6,125.2l1.8,0.8l0.8-1.7
		l-1.8-0.8L221.6,125.2L221.6,125.2z M223.9,126.3l1.7,0.8l0.8-1.7l-1.7-0.8L223.9,126.3L223.9,126.3z M226.1,127.3l1.7,0.8l0.8-1.7
		l-1.7-0.8L226.1,127.3L226.1,127.3z M228.3,128.3l1.7,0.8l0.8-1.7l-1.7-0.8L228.3,128.3L228.3,128.3z M230.5,129.3l1.8,0.8l0.8-1.7
		l-1.8-0.8L230.5,129.3L230.5,129.3z M232.8,130.3l1.7,0.8l0.8-1.7l-1.7-0.8L232.8,130.3L232.8,130.3z M235.1,131.3l1.7,0.8l0.8-1.7
		l-1.7-0.8L235.1,131.3L235.1,131.3z M237.3,132.3l1.7,0.8l0.8-1.7l-1.7-0.8L237.3,132.3L237.3,132.3z M239.5,133.3l1.9,0.8l0.8-1.7
		l-1.9-0.8L239.5,133.3L239.5,133.3z M241.9,134.4l1.2,0.6c0.3-0.3,0.7-0.5,1-0.8l0.3-0.7l-1.7-0.8L241.9,134.4L241.9,134.4z
		 M242.6,135.3l-1-0.4l-0.7,1.5C241.5,136.1,242,135.7,242.6,135.3L242.6,135.3z M241.1,134.7l-1.9-0.8l-0.8,1.7l1.9,0.8
		L241.1,134.7L241.1,134.7z M238.8,133.6l-1.7-0.8l-0.8,1.7l1.7,0.8L238.8,133.6L238.8,133.6z M236.6,132.6l-1.7-0.8l-0.8,1.7
		l1.7,0.8L236.6,132.6L236.6,132.6z M234.4,131.6l-1.7-0.8l-0.8,1.7l1.7,0.8L234.4,131.6L234.4,131.6z M232.1,130.6l-1.8-0.8
		l-0.8,1.7l1.8,0.8L232.1,130.6L232.1,130.6z M229.8,129.5l-1.7-0.8l-0.8,1.7l1.7,0.8L229.8,129.5L229.8,129.5z M227.6,128.5
		l-1.7-0.8l-0.8,1.7l1.7,0.8L227.6,128.5L227.6,128.5z M225.4,127.5l-1.7-0.8l-0.8,1.7l1.7,0.8L225.4,127.5L225.4,127.5z
		 M223.2,126.5l-1.8-0.8l-0.8,1.7l1.8,0.8L223.2,126.5L223.2,126.5z M220.9,125.5l-1.7-0.8l-0.8,1.7l1.7,0.8L220.9,125.5
		L220.9,125.5z M218.6,124.5l-1.7-0.8l-0.8,1.7l1.7,0.8L218.6,124.5L218.6,124.5z M216.4,123.5l-1-0.4c0.1,0.7,0.1,1.4,0.3,2
		L216.4,123.5L216.4,123.5z M217.6,126.7l-1.7-0.8l0,0c0,0.2,0.1,0.4,0.1,0.6c0.2,0.7,0.4,1.5,0.7,2.2L217.6,126.7L217.6,126.7z
		 M215.6,117.2l0.8,0.4l0.8-1.8l-1.3-0.6C215.8,115.8,215.7,116.5,215.6,117.2L215.6,117.2z M216.9,117.8l1.7,0.8l0.8-1.8l-1.7-0.8
		L216.9,117.8L216.9,117.8z M219.2,118.8l1.7,0.8l0.8-1.8L220,117L219.2,118.8L219.2,118.8z M221.4,119.8l1.7,0.8l0.8-1.8l-1.7-0.8
		L221.4,119.8L221.4,119.8z M223.6,120.8l1.8,0.8l0.8-1.8l-1.8-0.8L223.6,120.8L223.6,120.8z M225.9,121.8l1.7,0.8l0.8-1.8l-1.7-0.8
		L225.9,121.8L225.9,121.8z M228.1,122.8l1.7,0.8l0.8-1.8l-1.7-0.8L228.1,122.8L228.1,122.8z M230.3,123.8l1.7,0.8l0.8-1.8l-1.7-0.8
		L230.3,123.8L230.3,123.8z M232.5,124.8l1.8,0.8l0.8-1.8l-1.8-0.8L232.5,124.8L232.5,124.8z M234.8,125.9l1.7,0.8l0.8-1.8l-1.7-0.8
		L234.8,125.9L234.8,125.9z M237.1,126.9l1.7,0.8l0.8-1.8l-1.7-0.8L237.1,126.9L237.1,126.9z M239.3,127.9l1.7,0.8l0.8-1.8l-1.7-0.8
		L239.3,127.9L239.3,127.9z M241.5,128.9l1.9,0.8l0.8-1.8l-1.9-0.8L241.5,128.9L241.5,128.9z M243.9,130l1.7,0.8l0.8-1.8l-1.7-0.8
		L243.9,130L243.9,130z M246.1,131l0.8,0.4c0.4-0.5,0.9-1,1.3-1.6l-1.3-0.6L246.1,131L246.1,131z M246.5,131.8l-0.6-0.3l-0.8,1.7
		l0,0C245.6,132.8,246.1,132.3,246.5,131.8L246.5,131.8z M245.4,131.3l-1.7-0.8l-0.8,1.7l1.7,0.8L245.4,131.3L245.4,131.3z
		 M243.1,130.2l-1.9-0.8l-0.8,1.7l1.9,0.8L243.1,130.2L243.1,130.2z M240.8,129.2l-1.7-0.8l-0.8,1.7l1.7,0.8L240.8,129.2
		L240.8,129.2z M238.6,128.2l-1.7-0.8l-0.8,1.7l1.7,0.8L238.6,128.2L238.6,128.2z M236.4,127.2l-1.7-0.8l-0.8,1.7l1.7,0.8
		L236.4,127.2L236.4,127.2z M234.1,126.2l-1.8-0.8l-0.8,1.7l1.8,0.8L234.1,126.2L234.1,126.2z M231.8,125.1l-1.7-0.8l-0.8,1.7
		l1.7,0.8L231.8,125.1L231.8,125.1z M229.6,124.1l-1.7-0.8l-0.8,1.7l1.7,0.8L229.6,124.1L229.6,124.1z M227.4,123.1l-1.7-0.8
		l-0.8,1.7l1.7,0.8L227.4,123.1L227.4,123.1z M225.2,122.1l-1.8-0.8l-0.8,1.7l1.8,0.8L225.2,122.1L225.2,122.1z M222.9,121.1
		l-1.7-0.8l-0.8,1.7l1.7,0.8L222.9,121.1L222.9,121.1z M220.6,120l-1.7-0.8l-0.8,1.7l1.7,0.8L220.6,120L220.6,120z M218.4,119
		l-1.7-0.8l-0.8,1.7l1.7,0.8L218.4,119L218.4,119z M216.2,118l-0.7-0.3c-0.1,0.7-0.1,1.4-0.2,2l0,0L216.2,118L216.2,118z
		 M216.7,112.2l1.7,0.8l0.8-1.7l-1.9-0.8C217.1,111,216.9,111.6,216.7,112.2L216.7,112.2z M219,113.2l1.7,0.8l0.8-1.7l-1.7-0.8
		L219,113.2L219,113.2z M221.2,114.2l1.7,0.8l0.8-1.7l-1.7-0.8L221.2,114.2L221.2,114.2z M223.4,115.2l1.7,0.8l0.8-1.7l-1.7-0.8
		L223.4,115.2L223.4,115.2z M225.6,116.3l1.8,0.8l0.8-1.7l-1.8-0.8L225.6,116.3L225.6,116.3z M227.9,117.3l1.7,0.8l0.8-1.7l-1.7-0.8
		L227.9,117.3L227.9,117.3z M230.2,118.3l1.7,0.8l0.8-1.7l-1.7-0.8L230.2,118.3L230.2,118.3z M232.4,119.3l1.7,0.8l0.8-1.7l-1.7-0.8
		L232.4,119.3L232.4,119.3z M234.6,120.3l1.8,0.8l0.8-1.7l-1.8-0.8L234.6,120.3L234.6,120.3z M236.9,121.4l1.7,0.8l0.8-1.7l-1.7-0.8
		L236.9,121.4L236.9,121.4z M239.1,122.4l1.7,0.8l0.8-1.7l-1.7-0.8L239.1,122.4L239.1,122.4z M241.3,123.4l1.7,0.8l0.8-1.7l-1.7-0.8
		L241.3,123.4L241.3,123.4z M243.6,124.4l1.9,0.8l0.8-1.7l-1.9-0.8L243.6,124.4L243.6,124.4z M245.9,125.4l1.7,0.8l0.8-1.7l-1.7-0.8
		L245.9,125.4L245.9,125.4z M248.1,126.5l1.7,0.8c0.3-0.5,0.6-1.1,0.9-1.6l-1.9-0.8L248.1,126.5L248.1,126.5z M249.6,127.7l-1.7-0.7
		l-0.8,1.7l1.4,0.6C248.9,128.8,249.2,128.2,249.6,127.7L249.6,127.7z M247.4,126.7l-1.7-0.8l-0.8,1.7l1.7,0.8L247.4,126.7
		L247.4,126.7z M245.2,125.7l-1.9-0.8l-0.8,1.7l1.9,0.8L245.2,125.7L245.2,125.7z M242.8,124.6l-1.7-0.8l-0.8,1.7l1.7,0.8
		L242.8,124.6L242.8,124.6z M240.6,123.6l-1.7-0.8l-0.8,1.7l1.7,0.8L240.6,123.6L240.6,123.6z M238.4,122.6l-1.7-0.8l-0.8,1.7
		l1.7,0.8L238.4,122.6L238.4,122.6z M236.2,121.6l-1.8-0.8l-0.8,1.7l1.8,0.8L236.2,121.6L236.2,121.6z M233.9,120.6l-1.7-0.8
		l-0.8,1.7l1.7,0.8L233.9,120.6L233.9,120.6z M231.7,119.6l-1.7-0.8l-0.8,1.7l1.7,0.8L231.7,119.6L231.7,119.6z M229.5,118.6
		l-1.7-0.8l-0.8,1.7l1.7,0.8L229.5,118.6L229.5,118.6z M227.2,117.6l-1.8-0.8l-0.8,1.7l1.8,0.8L227.2,117.6L227.2,117.6z
		 M224.9,116.5l-1.7-0.8l-0.8,1.7l1.7,0.8L224.9,116.5L224.9,116.5z M222.7,115.5l-1.7-0.8l-0.8,1.7l1.7,0.8L222.7,115.5
		L222.7,115.5z M220.5,114.5l-1.7-0.8l-0.8,1.7l1.7,0.8L220.5,114.5L220.5,114.5z M218.3,113.5l-1.7-0.8c-0.2,0.6-0.4,1.2-0.5,1.9
		l1.4,0.6L218.3,113.5L218.3,113.5z M251.8,123.4l-1.9-0.9l-0.8,1.7l1.9,0.8c0.2-0.3,0.3-0.6,0.4-0.9
		C251.6,123.9,251.7,123.6,251.8,123.4L251.8,123.4z M249.4,122.3l-1.7-0.8l-0.8,1.7l1.7,0.8L249.4,122.3L249.4,122.3z M247.2,121.3
		l-1.9-0.8l-0.8,1.7l1.9,0.8L247.2,121.3L247.2,121.3z M244.9,120.2l-1.7-0.8l-0.8,1.7l1.7,0.8L244.9,120.2L244.9,120.2z
		 M242.6,119.2l-1.7-0.8l-0.8,1.7l1.7,0.8L242.6,119.2L242.6,119.2z M240.4,118.2l-1.7-0.8l-0.8,1.7l1.7,0.8L240.4,118.2
		L240.4,118.2z M238.2,117.2l-1.8-0.8l-0.8,1.7l1.8,0.8L238.2,117.2L238.2,117.2z M235.9,116.2l-1.7-0.8l-0.8,1.7l1.7,0.8
		L235.9,116.2L235.9,116.2z M233.7,115.1l-1.7-0.8l-0.8,1.7l1.7,0.8L233.7,115.1L233.7,115.1z M231.5,114.1l-1.7-0.8l-0.8,1.7
		l1.7,0.8L231.5,114.1L231.5,114.1z M229.2,113.1l-1.8-0.8l-0.8,1.7l1.8,0.8L229.2,113.1L229.2,113.1z M226.9,112.1l-1.7-0.8
		l-0.8,1.7l1.7,0.8L226.9,112.1L226.9,112.1z M224.7,111.1l-1.7-0.8l-0.8,1.7l1.7,0.8L224.7,111.1L224.7,111.1z M222.5,110.1
		l-1.7-0.8L220,111l1.7,0.8L222.5,110.1L222.5,110.1z M220.3,109.1l-1.9-0.9c-0.1,0.3-0.3,0.5-0.4,0.8c-0.1,0.3-0.3,0.6-0.4,1
		l1.9,0.9L220.3,109.1L220.3,109.1z"/>
	<path d="M207.6,171.9l10.1-22c0.1-0.5,0.5-2.8,0.7-5.7c0.2-2.9,0.1-6.5-0.9-9.6c0-0.1,0-0.3,0.2-0.3l1.5-0.5c0.1,0,0.3,0,0.3,0.2
		c1.6,5.2,1,11.7,0.5,14.7L207.6,171.9L207.6,171.9z M209.2,172.9L209.2,172.9L209.2,172.9L209.2,172.9L209.2,172.9L209.2,172.9
		L209.2,172.9L209.2,172.9z M209,172.5L209,172.5l-1.1-0.5l10.1-22c0.2-0.9,1.7-9.2-0.2-15.4l1.5-0.5c1.7,5.4,0.9,12.3,0.5,15.1
		c0.1-0.1,0.2-0.3,0.3-0.4c2-2.3,6.4-7.1,11.4-9.3c0.1-0.1,0.3,0,0.4,0.1l0.7,1.5c0.1,0.1,0,0.3-0.1,0.4c-2.9,1.3-5.7,3.6-7.8,5.6
		c-2.1,2-3.5,3.8-3.8,4.2l-9.9,22.1c-0.1,0.1-0.2,0.2-0.4,0.1l0,0l-1.3-0.6l-0.1,0l0,0l-0.1,0l-0.1,0l0,0c0,0-0.1-0.1-0.1-0.1l0,0
		C208.9,172.6,208.9,172.6,209,172.5L209,172.5z M209.2,172.9L209.2,172.9L209.2,172.9L209.2,172.9z M209.1,172.8l-1.3-0.6
		c-0.1-0.1-0.2-0.2-0.1-0.4l0,0L209.1,172.8L209.1,172.8z"/>
	<path class="st0" d="M74.7,52.9c31.6-7,56.1-10.3,86.6,5.2c21,10.7,34.2,25.6,47.2,44.8c-12.3-16.9-24.2-29.9-42.9-39.9
		c-24-12.7-63.5-16.3-86.3-0.9L74.7,52.9L74.7,52.9z"/>
</g>
</svg>
